<?xml version="1.0" standalone="no"?>
<!DOCTYPE svg PUBLIC "-//W3C//DTD SVG 20010904//EN"
 "http://www.w3.org/TR/2001/REC-SVG-20010904/DTD/svg10.dtd">
<svg version="1.0" xmlns="http://www.w3.org/2000/svg"
 width="256.000000pt" height="256.000000pt" viewBox="0 0 256.000000 256.000000"
 preserveAspectRatio="xMidYMid meet">
<metadata>
Created by potrace 1.16, written by Peter Selinger 2001-2019
</metadata>
<g transform="translate(0.000000,256.000000) scale(0.100000,-0.100000)"
fill="#000000" stroke="none">
<path d="M1145 2495 c-5 -2 -44 -9 -85 -16 -41 -7 -66 -15 -55 -17 12 -3 -12
-13 -60 -27 -96 -28 -114 -25 -23 4 34 11 55 20 45 20 -71 3 -419 -171 -402
-200 3 -4 0 -11 -6 -15 -8 -5 -9 -3 -4 6 5 8 3 11 -6 8 -8 -3 -13 -10 -12 -16
1 -5 -5 -16 -15 -24 -15 -12 -16 -11 -3 5 29 36 -4 14 -74 -50 -77 -72 -181
-191 -173 -199 3 -2 17 13 31 33 15 21 66 76 114 123 l88 85 -91 -95 c-50 -52
-100 -110 -113 -128 -12 -18 -26 -30 -31 -27 -9 6 -39 -33 -59 -75 l-12 -25
18 24 c43 59 50 62 18 6 -41 -72 -60 -99 -44 -67 6 13 8 26 6 29 -7 6 -97
-178 -97 -197 0 -13 2 -13 10 0 12 18 9 1 -20 -105 -18 -63 -20 -55 -6 21 3
16 -3 3 -13 -29 -48 -145 -52 -379 -11 -554 22 -94 36 -124 25 -55 -3 20 6 1
19 -43 29 -91 30 -102 10 -60 l-15 30 6 -30 c12 -61 159 -325 181 -325 3 0 2
6 -2 12 -5 9 -2 9 9 -1 18 -15 23 -26 7 -16 -5 3 -10 2 -10 -3 0 -12 25 -33
32 -27 3 3 13 -5 24 -17 l19 -23 -22 19 c-13 11 -23 15 -23 10 0 -12 152 -164
164 -164 5 0 2 8 -5 18 -11 14 -10 13 9 -2 24 -21 29 -31 10 -21 -7 4 4 -10
26 -29 44 -40 228 -151 266 -160 14 -4 -5 9 -42 29 -38 19 -68 38 -68 40 0 3
28 -9 63 -26 34 -18 91 -42 127 -55 36 -12 60 -23 54 -23 -6 -1 -31 6 -54 14
-24 8 -45 13 -47 11 -6 -6 165 -60 242 -77 79 -18 351 -18 430 0 77 17 248 71
242 77 -2 2 -23 -3 -47 -11 -23 -8 -48 -15 -54 -14 -6 0 18 11 54 23 36 13 93
37 128 55 34 17 62 29 62 26 0 -2 -30 -21 -67 -40 -38 -20 -57 -33 -43 -29 38
9 222 120 266 160 22 19 32 32 24 28 -10 -5 -9 0 4 14 21 25 36 31 16 7 -7 -8
-8 -15 -3 -15 11 0 163 153 163 164 0 5 -10 1 -22 -10 l-23 -19 19 23 c11 12
21 20 24 17 7 -7 32 15 32 27 0 6 -8 4 -17 -3 -15 -11 -14 -10 1 9 20 23 32
30 20 10 -4 -7 -3 -8 4 -4 33 20 165 261 177 321 l6 30 -15 -30 c-20 -42 -19
-31 10 60 17 55 23 67 20 40 l-5 -40 15 45 c40 124 55 331 34 470 -12 76 -51
232 -57 226 -2 -2 3 -31 11 -64 9 -33 16 -66 15 -73 -1 -12 -27 80 -44 151 -4
19 -3 21 5 10 8 -13 10 -13 10 1 0 21 -90 202 -97 196 -2 -3 0 -16 6 -29 16
-32 -3 -5 -44 67 -32 56 -25 53 18 -6 l18 -24 -12 25 c-20 42 -50 81 -59 75
-5 -3 -19 9 -31 27 -13 18 -63 76 -113 128 l-91 95 88 -85 c48 -47 99 -102
114 -123 14 -20 28 -35 31 -33 8 8 -96 127 -173 199 -71 65 -101 86 -74 50 11
-16 11 -16 -1 -5 -8 7 -15 18 -15 24 0 6 -6 13 -14 16 -9 3 -11 0 -6 -8 5 -9
4 -11 -4 -6 -6 4 -9 11 -6 15 17 29 -331 203 -402 200 -10 0 11 -9 45 -20 91
-29 73 -32 -23 -4 -48 13 -72 24 -60 27 11 2 -9 10 -45 17 -61 13 -343 25
-365 16z m285 -409 c41 -8 106 -26 144 -40 38 -14 71 -24 73 -22 2 2 -16 12
-42 21 -25 10 -44 20 -41 22 5 6 128 -46 141 -59 7 -8 6 -9 -2 -4 -7 4 -13 3
-13 -2 0 -5 12 -15 28 -23 44 -22 48 -22 22 1 l-25 22 25 -14 c14 -9 25 -21
25 -28 0 -8 6 -15 14 -18 8 -3 11 0 7 7 -11 17 0 13 15 -6 12 -15 12 -16 -1
-8 -13 8 -13 7 -1 -8 16 -20 36 -23 25 -4 -4 6 5 1 19 -12 15 -13 24 -27 22
-31 -2 -4 10 -20 27 -36 18 -16 26 -20 18 -9 -8 11 0 7 18 -9 18 -17 32 -32
32 -35 0 -3 -5 0 -12 7 -20 20 -32 13 -13 -8 10 -11 21 -17 25 -15 4 3 14 -3
21 -12 10 -12 10 -14 2 -9 -19 11 -16 -2 7 -31 11 -14 20 -21 20 -16 0 5 -6
15 -12 22 -11 11 -10 13 0 7 14 -8 86 -147 96 -186 4 -14 -7 3 -23 38 -16 34
-33 62 -36 62 -3 0 -4 -3 -2 -7 15 -30 42 -93 57 -137 11 -29 19 -43 20 -31 2
17 3 16 10 -5 4 -14 7 -59 5 -100 -2 -60 -1 -66 5 -30 6 38 7 33 7 -38 0 -45
-3 -85 -8 -88 -5 -3 -8 -46 -7 -97 2 -75 -2 -103 -21 -150 -12 -31 -27 -55
-32 -52 -11 8 -53 -81 -44 -95 4 -6 2 -9 -3 -8 -5 2 -36 -33 -69 -78 -33 -44
-73 -90 -89 -103 -16 -12 -22 -20 -14 -18 14 3 114 113 153 167 17 24 17 24 0
-8 -21 -39 -160 -192 -174 -192 -6 0 -7 5 -3 11 4 7 -7 1 -24 -11 -17 -13 -29
-27 -26 -31 2 -4 0 -10 -6 -14 -5 -3 -10 -2 -10 4 0 6 -23 -3 -52 -20 -28 -17
-69 -38 -91 -46 -23 -10 -34 -19 -27 -23 16 -10 -28 -21 -55 -14 -11 3 -32 0
-45 -6 -23 -9 -22 -10 10 -5 31 4 30 3 -10 -11 -25 -8 -54 -13 -65 -11 -14 3
-12 5 8 6 15 0 27 5 27 9 0 5 -28 4 -62 -2 -60 -10 -61 -11 -28 -17 19 -3 -21
-6 -90 -6 -69 0 -109 3 -90 6 33 6 32 7 -27 17 -35 6 -63 7 -63 2 0 -4 12 -9
28 -9 19 -1 21 -3 7 -6 -11 -2 -40 3 -65 11 -40 14 -41 15 -10 11 32 -5 33 -4
10 5 -13 6 -34 9 -46 6 -12 -3 -33 -2 -46 3 -13 6 -17 10 -8 11 8 0 -25 22
-75 48 -49 26 -93 43 -96 39 -8 -11 -112 76 -168 139 -55 62 -92 115 -68 95
21 -17 22 -8 1 24 -9 14 -20 22 -25 19 -5 -3 -6 1 -3 9 3 8 -7 39 -21 68 -15
29 -34 75 -42 102 -8 27 -17 47 -20 44 -3 -3 2 -27 11 -53 9 -26 14 -49 12
-52 -3 -2 -14 26 -25 63 -15 48 -20 85 -17 138 3 53 2 60 -3 27 -5 -29 -7 2
-7 90 0 88 2 119 7 90 5 -35 6 -28 4 30 -2 69 10 158 15 105 1 -12 9 0 19 30
28 77 97 221 110 229 6 4 11 12 11 19 0 22 -21 -10 -71 -104 -26 -52 -49 -90
-49 -86 0 18 92 186 112 203 14 13 19 14 13 4 -4 -8 4 -4 18 9 33 30 36 52 5
25 -21 -17 -21 -16 1 9 14 15 27 25 29 22 8 -7 52 36 47 45 -2 4 7 18 22 31
14 13 23 18 19 12 -11 -19 9 -16 25 4 10 11 10 14 2 9 -19 -11 -16 -1 4 15 14
12 16 12 9 0 -6 -9 -4 -12 5 -9 8 3 14 10 14 18 0 7 11 19 25 28 l25 14 -25
-21 c-32 -27 -21 -27 24 0 38 22 48 36 19 24 -12 -4 -15 -3 -8 3 13 13 136 64
141 59 3 -2 -16 -12 -41 -22 -26 -9 -44 -19 -42 -21 2 -2 35 8 73 22 136 52
298 66 444 40z"/>
<path d="M1195 1421 c-48 -22 -80 -55 -69 -72 5 -8 3 -10 -6 -4 -10 6 -12 4
-7 -9 4 -10 3 -15 -3 -11 -14 9 -23 -39 -18 -93 6 -58 47 -125 90 -149 22 -11
56 -17 98 -17 42 0 76 6 98 17 46 25 85 91 90 154 5 56 -13 117 -31 106 -6 -4
-7 -1 -3 6 20 32 -80 91 -154 91 -25 0 -63 -9 -85 -19z"/>
</g>
</svg>
